<mxfile host="app.diagrams.net" modified="2022-12-12T02:01:45.629Z" agent="5.0 (Windows NT 10.0; Win64; x64) AppleWebKit/537.36 (KHTML, like Gecko) Chrome/108.0.0.0 Safari/537.36" version="20.6.2" etag="cZTkJMRU0_PK98TJQfgb" type="github">
  <diagram id="_l68q7Rq-pkRGa_NqP47" name="第 1 页">
    <mxGraphModel dx="1462" dy="752" grid="1" gridSize="10" guides="1" tooltips="1" connect="1" arrows="1" fold="1" page="1" pageScale="1" pageWidth="827" pageHeight="1169" math="0" shadow="0">
      <root>
        <mxCell id="0" />
        <mxCell id="1" parent="0" />
        <mxCell id="7OBlotwKf9dcvaxBll90-7" style="edgeStyle=orthogonalEdgeStyle;rounded=0;orthogonalLoop=1;jettySize=auto;html=1;" edge="1" parent="1" source="7OBlotwKf9dcvaxBll90-1" target="7OBlotwKf9dcvaxBll90-6">
          <mxGeometry relative="1" as="geometry">
            <Array as="points">
              <mxPoint x="120" y="200" />
              <mxPoint x="150" y="200" />
            </Array>
          </mxGeometry>
        </mxCell>
        <mxCell id="7OBlotwKf9dcvaxBll90-1" value="&lt;p class=&quot;MsoNormal&quot;&gt;&lt;span style=&quot;mso-spacerun:&#39;yes&#39;;font-family:宋体;font-size:10.5000pt;&lt;br/&gt;mso-font-kerning:1.0000pt;&quot;&gt;采购&lt;/span&gt;&lt;span style=&quot;mso-spacerun:&#39;yes&#39;;font-family:宋体;font-size:10.5000pt;&lt;br/&gt;mso-font-kerning:1.0000pt;&quot;&gt;员&lt;/span&gt;&lt;/p&gt;" style="rounded=0;whiteSpace=wrap;html=1;" vertex="1" parent="1">
          <mxGeometry x="20" y="50" width="120" height="60" as="geometry" />
        </mxCell>
        <mxCell id="7OBlotwKf9dcvaxBll90-8" style="edgeStyle=orthogonalEdgeStyle;rounded=0;orthogonalLoop=1;jettySize=auto;html=1;exitX=0.5;exitY=1;exitDx=0;exitDy=0;" edge="1" parent="1" source="7OBlotwKf9dcvaxBll90-2">
          <mxGeometry relative="1" as="geometry">
            <mxPoint x="150" y="290" as="targetPoint" />
            <Array as="points">
              <mxPoint x="200" y="110" />
              <mxPoint x="200" y="200" />
              <mxPoint x="150" y="200" />
            </Array>
          </mxGeometry>
        </mxCell>
        <mxCell id="7OBlotwKf9dcvaxBll90-2" value="&lt;p class=&quot;MsoNormal&quot;&gt;&lt;span style=&quot;mso-spacerun:&#39;yes&#39;;font-family:宋体;font-size:10.5000pt;&lt;br/&gt;mso-font-kerning:1.0000pt;&quot;&gt;采购经理&lt;/span&gt;&lt;/p&gt;" style="rounded=0;whiteSpace=wrap;html=1;" vertex="1" parent="1">
          <mxGeometry x="180" y="50" width="120" height="60" as="geometry" />
        </mxCell>
        <mxCell id="7OBlotwKf9dcvaxBll90-12" style="edgeStyle=orthogonalEdgeStyle;rounded=0;orthogonalLoop=1;jettySize=auto;html=1;entryX=1;entryY=0.5;entryDx=0;entryDy=0;" edge="1" parent="1" source="7OBlotwKf9dcvaxBll90-3" target="7OBlotwKf9dcvaxBll90-6">
          <mxGeometry relative="1" as="geometry">
            <Array as="points">
              <mxPoint x="400" y="310" />
              <mxPoint x="200" y="310" />
            </Array>
          </mxGeometry>
        </mxCell>
        <mxCell id="7OBlotwKf9dcvaxBll90-3" value="&lt;p class=&quot;MsoNormal&quot;&gt;&lt;span style=&quot;mso-spacerun:&#39;yes&#39;;font-family:宋体;font-size:10.5000pt;&lt;br/&gt;mso-font-kerning:1.0000pt;&quot;&gt;采购总监&lt;/span&gt;&lt;/p&gt;" style="rounded=0;whiteSpace=wrap;html=1;" vertex="1" parent="1">
          <mxGeometry x="370" y="50" width="120" height="60" as="geometry" />
        </mxCell>
        <mxCell id="7OBlotwKf9dcvaxBll90-24" style="edgeStyle=orthogonalEdgeStyle;rounded=0;orthogonalLoop=1;jettySize=auto;html=1;" edge="1" parent="1" source="7OBlotwKf9dcvaxBll90-4" target="7OBlotwKf9dcvaxBll90-23">
          <mxGeometry relative="1" as="geometry" />
        </mxCell>
        <mxCell id="7OBlotwKf9dcvaxBll90-4" value="&lt;p class=&quot;MsoNormal&quot;&gt;&lt;span style=&quot;mso-spacerun:&#39;yes&#39;;font-family:宋体;font-size:10.5000pt;&lt;br/&gt;mso-font-kerning:1.0000pt;&quot;&gt;仓管人员&lt;/span&gt;&lt;/p&gt;" style="rounded=0;whiteSpace=wrap;html=1;" vertex="1" parent="1">
          <mxGeometry x="80" y="820" width="120" height="60" as="geometry" />
        </mxCell>
        <mxCell id="7OBlotwKf9dcvaxBll90-21" style="edgeStyle=orthogonalEdgeStyle;rounded=0;orthogonalLoop=1;jettySize=auto;html=1;entryX=0.5;entryY=0;entryDx=0;entryDy=0;" edge="1" parent="1" source="7OBlotwKf9dcvaxBll90-5" target="7OBlotwKf9dcvaxBll90-20">
          <mxGeometry relative="1" as="geometry" />
        </mxCell>
        <mxCell id="7OBlotwKf9dcvaxBll90-5" value="&lt;p class=&quot;MsoNormal&quot;&gt;&lt;span style=&quot;mso-spacerun:&#39;yes&#39;;font-family:宋体;font-size:10.5000pt;&lt;br/&gt;mso-font-kerning:1.0000pt;&quot;&gt;供应商&lt;/span&gt;&lt;/p&gt;" style="rounded=0;whiteSpace=wrap;html=1;" vertex="1" parent="1">
          <mxGeometry x="80" y="550" width="120" height="60" as="geometry" />
        </mxCell>
        <mxCell id="7OBlotwKf9dcvaxBll90-18" style="edgeStyle=orthogonalEdgeStyle;rounded=0;orthogonalLoop=1;jettySize=auto;html=1;" edge="1" parent="1" source="7OBlotwKf9dcvaxBll90-6" target="7OBlotwKf9dcvaxBll90-17">
          <mxGeometry relative="1" as="geometry" />
        </mxCell>
        <mxCell id="7OBlotwKf9dcvaxBll90-6" value="&lt;p class=&quot;MsoNormal&quot;&gt;&lt;span style=&quot;mso-spacerun:&#39;yes&#39;;font-family:宋体;font-size:10.5000pt;&lt;br/&gt;mso-font-kerning:1.0000pt;&quot;&gt;采购单&lt;/span&gt;&lt;/p&gt;" style="rounded=0;whiteSpace=wrap;html=1;" vertex="1" parent="1">
          <mxGeometry x="80" y="290" width="120" height="60" as="geometry" />
        </mxCell>
        <mxCell id="7OBlotwKf9dcvaxBll90-11" value="创建" style="rounded=1;whiteSpace=wrap;html=1;" vertex="1" parent="1">
          <mxGeometry x="110" y="225" width="80" height="30" as="geometry" />
        </mxCell>
        <mxCell id="7OBlotwKf9dcvaxBll90-13" value="审批" style="rounded=1;whiteSpace=wrap;html=1;" vertex="1" parent="1">
          <mxGeometry x="370" y="210" width="80" height="30" as="geometry" />
        </mxCell>
        <mxCell id="7OBlotwKf9dcvaxBll90-16" style="edgeStyle=orthogonalEdgeStyle;rounded=0;orthogonalLoop=1;jettySize=auto;html=1;entryX=0;entryY=0.5;entryDx=0;entryDy=0;" edge="1" parent="1" source="7OBlotwKf9dcvaxBll90-15" target="7OBlotwKf9dcvaxBll90-1">
          <mxGeometry relative="1" as="geometry">
            <Array as="points">
              <mxPoint x="420" y="410" />
              <mxPoint y="410" />
              <mxPoint y="80" />
            </Array>
          </mxGeometry>
        </mxCell>
        <mxCell id="7OBlotwKf9dcvaxBll90-15" value="&lt;p class=&quot;MsoNormal&quot;&gt;&lt;span style=&quot;mso-spacerun:&#39;yes&#39;;font-family:宋体;font-size:10.5000pt;&lt;br/&gt;mso-font-kerning:1.0000pt;&quot;&gt;采购计划推送的采购单进行确认并选择对应的采购员操作&lt;/span&gt;&lt;/p&gt;" style="rounded=0;whiteSpace=wrap;html=1;" vertex="1" parent="1">
          <mxGeometry x="330" y="290" width="180" height="40" as="geometry" />
        </mxCell>
        <mxCell id="7OBlotwKf9dcvaxBll90-19" style="edgeStyle=orthogonalEdgeStyle;rounded=0;orthogonalLoop=1;jettySize=auto;html=1;" edge="1" parent="1" source="7OBlotwKf9dcvaxBll90-17" target="7OBlotwKf9dcvaxBll90-5">
          <mxGeometry relative="1" as="geometry" />
        </mxCell>
        <mxCell id="7OBlotwKf9dcvaxBll90-17" value="&lt;p class=&quot;MsoNormal&quot;&gt;&lt;span style=&quot;mso-spacerun:&#39;yes&#39;;font-family:宋体;font-size:10.5000pt;&lt;br/&gt;mso-font-kerning:1.0000pt;&quot;&gt;审批完成的采购单&lt;/span&gt;&lt;/p&gt;" style="rounded=1;whiteSpace=wrap;html=1;" vertex="1" parent="1">
          <mxGeometry x="80" y="440" width="120" height="60" as="geometry" />
        </mxCell>
        <mxCell id="7OBlotwKf9dcvaxBll90-22" style="edgeStyle=orthogonalEdgeStyle;rounded=0;orthogonalLoop=1;jettySize=auto;html=1;" edge="1" parent="1" source="7OBlotwKf9dcvaxBll90-20" target="7OBlotwKf9dcvaxBll90-4">
          <mxGeometry relative="1" as="geometry" />
        </mxCell>
        <mxCell id="7OBlotwKf9dcvaxBll90-20" value="&lt;p class=&quot;MsoNormal&quot;&gt;&lt;span style=&quot;mso-spacerun:&#39;yes&#39;;font-family:宋体;font-size:10.5000pt;&lt;br/&gt;mso-font-kerning:1.0000pt;&quot;&gt;可以进行货物确认以及填写发货的运单号、预计到货时间和数量&lt;/span&gt;&lt;/p&gt;" style="rounded=1;whiteSpace=wrap;html=1;" vertex="1" parent="1">
          <mxGeometry x="35" y="680" width="210" height="70" as="geometry" />
        </mxCell>
        <mxCell id="7OBlotwKf9dcvaxBll90-23" value="&lt;p style=&quot;text-indent:21.0000pt;mso-char-indent-count:2.0000;text-autospace:ideograph-numeric;&lt;br/&gt;mso-pagination:none;line-height:150%;&quot; class=&quot;MsoNormal&quot;&gt;&lt;span style=&quot;mso-spacerun:&#39;yes&#39;;font-family:宋体;line-height:150%;&lt;br/&gt;font-size:10.5000pt;mso-font-kerning:1.0000pt;&quot;&gt;采购单的实际到货情况进行到货清点和接收预计到货时间提醒。&lt;/span&gt;&lt;span style=&quot;mso-spacerun:&#39;yes&#39;;font-family:宋体;line-height:150%;&lt;br/&gt;font-size:10.5000pt;mso-font-kerning:1.0000pt;&quot;&gt;&lt;/span&gt;&lt;/p&gt;" style="rounded=1;whiteSpace=wrap;html=1;" vertex="1" parent="1">
          <mxGeometry x="65" y="950" width="150" height="70" as="geometry" />
        </mxCell>
      </root>
    </mxGraphModel>
  </diagram>
</mxfile>
